<svg xmlns="http://www.w3.org/2000/svg" viewBox="0 0 256 256" role="img" aria-label="tempering hammer">
  <defs>
    <linearGradient id="steel" x1="0" x2="1" y1="0" y2="1">
      <stop offset="0" stop-color="#e7edf0"/>
      <stop offset=".42" stop-color="#8e9aa3"/>
      <stop offset="1" stop-color="#2b333b"/>
    </linearGradient>
    <linearGradient id="wood" x1="0" x2="1">
      <stop offset="0" stop-color="#8b4d2c"/>
      <stop offset="1" stop-color="#3b1e14"/>
    </linearGradient>
  </defs>
  <ellipse cx="132" cy="216" rx="76" ry="16" fill="#05070a" opacity=".45"/>
  <path d="M79 187 177 89l21 21-98 98c-10 9-31-11-21-21Z" fill="url(#wood)" stroke="#1b0d08" stroke-width="6"/>
  <path d="M162 54 211 103c5 5 5 13 0 18l-23 23c-5 5-13 5-18 0L121 95c-5-5-5-13 0-18l23-23c5-5 13-5 18 0Z" fill="url(#steel)" stroke="#e5c77e" stroke-width="5"/>
  <path d="M137 67 198 128M151 53l61 61" stroke="#ffffff" stroke-opacity=".35" stroke-width="5"/>
  <path d="M68 181c12 4 29 21 35 36" stroke="#e2b35b" stroke-width="5" stroke-linecap="round"/>
  <path d="m57 194 18-18M75 212l18-18" stroke="#27120a" stroke-width="5" stroke-linecap="round"/>
  <path d="M52 119h48M74 95v48" stroke="#ffdf87" stroke-width="7" stroke-linecap="round" opacity=".58"/>
</svg>
