<svg xmlns="http://www.w3.org/2000/svg" viewBox="0 0 256 256" role="img" aria-label="tempered blade">
  <defs>
    <linearGradient id="blade" x1="0" x2="1">
      <stop offset="0" stop-color="#f9fff9"/>
      <stop offset=".44" stop-color="#c8d4dd"/>
      <stop offset="1" stop-color="#6f7b86"/>
    </linearGradient>
    <linearGradient id="heat" x1="0" x2="1">
      <stop offset="0" stop-color="#ff6238"/>
      <stop offset=".55" stop-color="#ffdf87"/>
      <stop offset="1" stop-color="#8ee8ff"/>
    </linearGradient>
  </defs>
  <ellipse cx="128" cy="218" rx="88" ry="16" fill="#05070a" opacity=".42"/>
  <path d="M48 162 178 54c20-16 36-9 43 6-7 32-37 79-131 132L48 162Z" fill="url(#blade)" stroke="#10161d" stroke-width="6"/>
  <path d="M71 158c45-16 94-55 130-92" fill="none" stroke="#ffffff" stroke-width="7" stroke-linecap="round" opacity=".42"/>
  <path d="M46 166 89 192" stroke="#6b311d" stroke-width="18" stroke-linecap="round"/>
  <path d="M37 154 99 191" stroke="#d4a259" stroke-width="8" stroke-linecap="round"/>
  <path d="M93 132c24-3 71-27 104-62" stroke="url(#heat)" stroke-width="7" stroke-linecap="round" opacity=".82"/>
  <path d="M111 124h20M139 107h20M165 88h18" stroke="#ff8f52" stroke-width="5" stroke-linecap="round"/>
  <path d="M182 44h28M196 30v28M210 118h18M219 109v18" stroke="#fff4bd" stroke-width="5" stroke-linecap="round" opacity=".82"/>
</svg>
